# xmcd
#
# Track frame offsets:
#	150
#	12533
#	24140
#	37030
#	49048
#	61230
#	73994
#	85918
#	98813
#	110445
#	123866
#	137067
#	154362
#	167037
#	180168
#	191101
#	203036
#	215351
#	227305
#	238872
#
# Disc length: 3344 seconds
#
# Revision: 1
# Processed by: cddbd v1.5.1PL2 Copyright (c) Steve Scherf et al.
# Submitted via: audiograbber 1.83.01
#
DISCID=0e0d0e14
DTITLE=Various Artist - Country and Western Original Masters - CD 7
DYEAR=1900
DGENRE=Country
TTITLE0=Spade Cooley (1947) - Boogs Boogie (Cooley - Boogs - Wyble)
TTITLE1=Roy Acuff (1947) - Wabash Cannonball (Carter)
TTITLE2=Paul Howard (1947) - Drinking All My Troubles Away (Howard)
TTITLE3=Al Dexter (1947) - Saturday Night Boogie (Dexter - Sells)
TTITLE4=Roy Acuff (1947) - I Saw the Light (Williams)
TTITLE5=Merle Travis (1947) - Sixteen Tons (Travis)
TTITLE6=Merle Travis (1947) - Nine Pound Hammer (Travis)
TTITLE7=The Miller Brothers (1947) - Shadows on my Memories (Starnes)
TTITLE8=Link Davis (1947) - Texas Swing (Davis)
TTITLE9=Dick Dyson (1947) - You Waited Too Long (Dyson)
TTITLE10=Hank Penny (1947) - Penny Blows His Top (Penny)
TTITLE11=Dickie Jones (1947) - Diggin' (Hill)
TTITLE12=The Miller Brothers (1947) - Miller's Boogie (Fulcher)
TTITLE13=Johnny Bond (1948) - Birmingham Jail (Traditional)
TTITLE14=K. C. Douglas (1948) - Mercury Boogie (Douglas)
TTITLE15=Hawkshaw Hawkins (1948) - Dog House Boogie (Hawkins)
TTITLE16=Hank Williams (1948) - Honky Tonkin' (Williams)
TTITLE17=Red Foley (1948) - Tennessee Saturday Night (Hughes)
TTITLE18=Pee Wee King (1948) - Bull Fiddle Boogie (King - Stewart)
TTITLE19=Eddie Miller (1948) - Don't Break My Heart (Miller - Colbert)
EXTD=
EXTT0=
EXTT1=
EXTT2=
EXTT3=
EXTT4=
EXTT5=
EXTT6=
EXTT7=
EXTT8=
EXTT9=
EXTT10=
EXTT11=
EXTT12=
EXTT13=
EXTT14=
EXTT15=
EXTT16=
EXTT17=
EXTT18=
EXTT19=
PLAYORDER=
